<?xml version="1.0" standalone="no"?>
<!DOCTYPE svg PUBLIC "-//W3C//DTD SVG 20010904//EN"
 "http://www.w3.org/TR/2001/REC-SVG-20010904/DTD/svg10.dtd">
<svg version="1.0" xmlns="http://www.w3.org/2000/svg"
 width="400.000000pt" height="400.000000pt" viewBox="0 0 400.000000 400.000000"
 preserveAspectRatio="xMidYMid meet">
<metadata>
Created by potrace 1.11, written by Peter Selinger 2001-2013
</metadata>
<g transform="translate(0.000000,400.000000) scale(0.100000,-0.100000)"
fill="#000000" stroke="none">
<path d="M3665 3875 c-129 -20 -509 -75 -1578 -230 -125 -18 -231 -36 -235
-40 -4 -3 -7 -343 -7 -753 0 -739 0 -747 20 -750 11 -2 29 -7 40 -13 13 -6
375 -8 987 -7 777 2 970 6 980 16 17 17 25 1729 8 1746 -5 5 -10 20 -10 33 0
28 -4 28 -205 -2z"/>
<path d="M1350 3540 c-140 -21 -446 -66 -680 -99 -234 -34 -455 -66 -492 -72
l-68 -11 0 -628 0 -628 33 -8 c17 -4 359 -9 759 -11 718 -3 728 -3 748 17 20
20 20 32 20 705 0 730 -3 776 -45 774 -11 -1 -135 -19 -275 -39z"/>
<path d="M110 1297 l0 -634 43 -17 c23 -9 105 -25 182 -36 77 -11 203 -29 280
-40 77 -11 205 -29 285 -40 80 -11 190 -26 245 -35 223 -34 448 -65 475 -65
19 0 33 7 40 19 15 29 14 1391 -2 1442 l-11 39 -769 0 -768 0 0 -633z"/>
<path d="M1840 1176 l0 -755 42 -19 c24 -10 86 -24 138 -31 52 -7 167 -23 255
-36 165 -25 573 -84 635 -92 19 -3 223 -31 453 -64 466 -66 501 -68 517 -40
14 27 14 1727 0 1736 -5 3 -10 17 -10 31 l0 24 -1015 0 -1014 0 -1 -754z"/>
</g>
</svg>
